PathFileType	4	(X/Y/Z)	Gait_norma_markers.trc
DataRate	CameraRate	NumFrames	NumMarkers	Units	OrigDataRate	OrigDataStartFrame	OrigNumFrames
100	100	8	38	m	100	13	86
Frame#	Time	RASI			RPSI			LPSI			LASI			RTROCH			RTHI			RTHI2			RTHI3			RTHI4			RKNE			RKNEM			RTIB			RTIB2			RTIB3			RTIB4			RANK			RANKM			RHEE			RTOE			RTOEL			RTOEM			LTROCH			LTHI			LTHI2			LTHI3			LTHI4			LKNE			LKNEM			LTIB			LTIB2			LTIB3			LTIB4			LANK			LANKM			LHEE			LTOE			LTOEL			LTOEM
		X1	Y1	Z1	X2	Y2	Z2	X3	Y3	Z3	X4	Y4	Z4	X5	Y5	Z5	X6	Y6	Z6	X7	Y7	Z7	X8	Y8	Z8	X9	Y9	Z9	X10	Y10	Z10	X11	Y11	Z11	X12	Y12	Z12	X13	Y13	Z13	X14	Y14	Z14	X15	Y15	Z15	X16	Y16	Z16	X17	Y17	Z17	X18	Y18	Z18	X19	Y19	Z19	X20	Y20	Z20	X21	Y21	Z21	X22	Y22	Z22	X23	Y23	Z23	X24	Y24	Z24	X25	Y25	Z25	X26	Y26	Z26	X27	Y27	Z27	X28	Y28	Z28	X29	Y29	Z29	X30	Y30	Z30	X31	Y31	Z31	X32	Y32	Z32	X33	Y33	Z33	X34	Y34	Z34	X35	Y35	Z35	X36	Y36	Z36	X37	Y37	Z37	X38	Y38	Z38

13	0.120000	-0.339844	0.936050	-0.762772	-0.257441	0.981827	-0.941126	-0.162217	0.969083	-0.930410	-0.114495	0.941628	-0.739302	-0.393277	0.869602	-0.848557	-0.398962	0.766998	-0.891009	-0.390240	0.753809	-0.827643	-0.377018	0.672915	-0.839873	-0.385332	0.680342	-0.901976	-0.346367	0.531756	-0.944132	-0.233962	0.537525	-0.933451	-0.359895	0.414732	-1.023734	-0.334379	0.393700	-0.968006	-0.329585	0.312912	-1.000288	-0.354976	0.339400	-1.055474	-0.290675	0.133037	-1.135801	-0.223973	0.132455	-1.095233	-0.240753	0.086077	-1.197621	-0.303598	0.051646	-0.973897	-0.351298	0.040550	-1.037992	-0.244563	0.034356	-0.983502	-0.050777	0.871434	-0.807803	-0.045700	0.675173	-0.727056	-0.070747	0.691998	-0.671862	-0.079790	0.611433	-0.653737	-0.055520	0.589838	-0.709475	-0.080425	0.515434	-0.665013	-0.191781	0.531085	-0.663913	-0.068013	0.301641	-0.616301	-0.077821	0.334773	-0.560948	-0.086759	0.254545	-0.525330	-0.078838	0.225713	-0.581028	-0.100543	0.104900	-0.505208	-0.165937	0.153284	-0.478855	-0.161461	0.048716	-0.527845	-0.098711	0.154141	-0.324996	-0.056549	0.106940	-0.359846	-0.152622	0.147861	-0.333293
14	0.130000	-0.339586	0.935108	-0.750050	-0.257469	0.980685	-0.928528	-0.162231	0.967725	-0.917693	-0.113970	0.940915	-0.726406	-0.392936	0.868473	-0.836380	-0.398870	0.765898	-0.879139	-0.390073	0.752643	-0.815767	-0.376661	0.671655	-0.828221	-0.385054	0.679417	-0.890424	-0.346669	0.531112	-0.933516	-0.233965	0.536725	-0.922181	-0.360181	0.415595	-1.014979	-0.334582	0.393254	-0.959465	-0.329781	0.313006	-0.993504	-0.355205	0.340579	-1.047870	-0.291937	0.136317	-1.133582	-0.225039	0.134833	-1.092733	-0.241776	0.090498	-1.196149	-0.303652	0.051201	-0.973502	-0.351509	0.040652	-1.037611	-0.245525	0.033985	-0.983304	-0.050706	0.870409	-0.795547	-0.045861	0.675456	-0.709916	-0.071279	0.692822	-0.655182	-0.080862	0.612847	-0.636260	-0.056216	0.590224	-0.691411	-0.081929	0.516562	-0.646147	-0.191892	0.533598	-0.644479	-0.069557	0.300093	-0.601270	-0.081039	0.331591	-0.545628	-0.091062	0.250193	-0.513263	-0.081164	0.223814	-0.569971	-0.103737	0.100790	-0.499637	-0.170398	0.146732	-0.472272	-0.163691	0.044024	-0.524269	-0.102749	0.144192	-0.318265	-0.059812	0.099041	-0.355495	-0.156356	0.136179	-0.326346
15	0.140000	-0.339101	0.933678	-0.737317	-0.257305	0.979441	-0.915144	-0.162350	0.966511	-0.904509	-0.113525	0.940410	-0.713185	-0.392438	0.867357	-0.823941	-0.398645	0.764933	-0.867121	-0.389967	0.751534	-0.803781	-0.376494	0.670743	-0.816373	-0.384735	0.678505	-0.878525	-0.346418	0.530411	-0.921890	-0.233830	0.535946	-0.910204	-0.360122	0.416089	-1.005255	-0.334551	0.392591	-0.950453	-0.330125	0.313252	-0.986312	-0.355530	0.341816	-1.040092	-0.292856	0.139792	-1.130851	-0.225916	0.137449	-1.089995	-0.242575	0.095173	-1.194134	-0.303306	0.050790	-0.972947	-0.351620	0.040744	-1.037270	-0.245812	0.034240	-0.982886	-0.050783	0.869229	-0.782836	-0.045424	0.675473	-0.692789	-0.071275	0.693928	-0.638301	-0.081590	0.614248	-0.618617	-0.056747	0.590719	-0.673228	-0.083517	0.517639	-0.626820	-0.192204	0.533904	-0.627328	-0.071852	0.297918	-0.586804	-0.084796	0.328116	-0.530929	-0.095262	0.245552	-0.502346	-0.083238	0.221254	-0.559431	-0.107032	0.097883	-0.496113	-0.174910	0.140379	-0.466777	-0.165370	0.042626	-0.521437	-0.107055	0.134044	-0.312361	-0.062133	0.092783	-0.351200	-0.160700	0.124428	-0.320125
16	0.150000	-0.338849	0.932947	-0.724195	-0.257255	0.978657	-0.901703	-0.162525	0.965091	-0.891301	-0.112880	0.939790	-0.699483	-0.392010	0.866453	-0.811445	-0.398485	0.764343	-0.855161	-0.389977	0.750653	-0.791713	-0.376565	0.669812	-0.804327	-0.384446	0.677649	-0.866435	-0.346512	0.529506	-0.910039	-0.233771	0.534954	-0.897239	-0.359960	0.416809	-0.995232	-0.334744	0.392056	-0.941049	-0.330562	0.312404	-0.979672	-0.355429	0.343070	-1.031703	-0.293825	0.143594	-1.127716	-0.226857	0.140323	-1.086687	-0.243306	0.100547	-1.191790	-0.302610	0.050435	-0.972274	-0.351785	0.040912	-1.036784	-0.246119	0.034546	-0.982438	-0.050755	0.868021	-0.769338	-0.045021	0.675079	-0.675741	-0.070558	0.694303	-0.621064	-0.082448	0.614993	-0.600868	-0.057676	0.590668	-0.655570	-0.085493	0.518779	-0.607846	-0.192386	0.535826	-0.608585	-0.073580	0.297591	-0.574057	-0.088633	0.324966	-0.517143	-0.099607	0.241384	-0.491948	-0.085565	0.219323	-0.549391	-0.110521	0.094795	-0.491957	-0.179636	0.135132	-0.462359	-0.167484	0.043306	-0.518987	-0.111875	0.125321	-0.305966	-0.065712	0.087331	-0.346636	-0.164881	0.113442	-0.313787
17	0.160000	-0.338278	0.931893	-0.710820	-0.257150	0.977867	-0.887923	-0.162051	0.963698	-0.876984	-0.111938	0.939391	-0.685409	-0.391460	0.865739	-0.798754	-0.397688	0.763391	-0.842736	-0.389931	0.749977	-0.779395	-0.376729	0.669141	-0.791945	-0.384068	0.676992	-0.854128	-0.346688	0.528877	-0.897585	-0.233754	0.533785	-0.883393	-0.359762	0.417713	-0.984758	-0.334919	0.391070	-0.931359	-0.330385	0.311521	-0.972755	-0.355750	0.343891	-1.023033	-0.294703	0.147747	-1.124044	-0.227762	0.143421	-1.082739	-0.244268	0.106414	-1.188930	-0.303008	0.050291	-0.971583	-0.351973	0.041263	-1.036206	-0.246213	0.034897	-0.982072	-0.050478	0.867078	-0.754864	-0.044869	0.674552	-0.659026	-0.069315	0.694639	-0.604155	-0.082731	0.615220	-0.583699	-0.059293	0.590522	-0.638721	-0.088058	0.519392	-0.590009	-0.192812	0.536567	-0.592367	-0.075384	0.297619	-0.560408	-0.092467	0.323117	-0.503551	-0.103713	0.238938	-0.480678	-0.088109	0.218303	-0.538031	-0.113076	0.093516	-0.485163	-0.183605	0.131742	-0.456151	-0.168332	0.044772	-0.515527	-0.117116	0.118406	-0.299158	-0.070781	0.083261	-0.341442	-0.170198	0.103958	-0.307707
18	0.170000	-0.337891	0.931453	-0.697313	-0.257071	0.978286	-0.875592	-0.161204	0.962645	-0.862849	-0.111969	0.939282	-0.671359	-0.390639	0.865293	-0.785582	-0.396859	0.763075	-0.830380	-0.389886	0.749708	-0.766927	-0.376926	0.668767	-0.779090	-0.383506	0.676419	-0.841352	-0.345986	0.527850	-0.884155	-0.233892	0.532521	-0.868259	-0.359654	0.418753	-0.973588	-0.336164	0.390500	-0.920795	-0.331962	0.312842	-0.963534	-0.355471	0.346099	-1.013767	-0.295729	0.152894	-1.119951	-0.228778	0.147064	-1.078313	-0.244973	0.113484	-1.185550	-0.302851	0.049548	-0.971196	-0.352109	0.041885	-1.035957	-0.246542	0.035117	-0.981660	-0.049917	0.866319	-0.739915	-0.045223	0.674347	-0.643266	-0.067872	0.694248	-0.587548	-0.082466	0.615144	-0.567482	-0.061451	0.590238	-0.623347	-0.090414	0.519795	-0.574374	-0.193444	0.537336	-0.577935	-0.077067	0.297596	-0.546583	-0.095624	0.322649	-0.489721	-0.106932	0.237801	-0.468406	-0.089718	0.218553	-0.525714	-0.114167	0.093015	-0.476579	-0.186102	0.129276	-0.448353	-0.168130	0.047201	-0.511897	-0.123257	0.111157	-0.292426	-0.075719	0.078390	-0.335561	-0.175387	0.095950	-0.302167
19	0.180000	-0.337412	0.931412	-0.683629	-0.255114	0.976525	-0.860576	-0.159965	0.962342	-0.848996	-0.111403	0.939738	-0.657132	-0.390029	0.865021	-0.772278	-0.395587	0.762736	-0.817477	-0.389700	0.749825	-0.754004	-0.377169	0.668707	-0.765685	-0.382758	0.676287	-0.828050	-0.346151	0.527226	-0.869637	-0.234052	0.531180	-0.851977	-0.360012	0.419472	-0.961469	-0.335121	0.387911	-0.910842	-0.332922	0.314154	-0.953563	-0.355617	0.348520	-1.003556	-0.296662	0.158064	-1.114613	-0.229839	0.151002	-1.072824	-0.245657	0.121128	-1.181007	-0.303130	0.049421	-0.970092	-0.352090	0.042348	-1.034716	-0.246715	0.035503	-0.981188	-0.049271	0.866244	-0.724654	-0.045992	0.675756	-0.628376	-0.066346	0.693832	-0.572049	-0.082461	0.614803	-0.552689	-0.063624	0.590611	-0.609693	-0.091142	0.521225	-0.560988	-0.194699	0.538133	-0.565409	-0.077809	0.299233	-0.532740	-0.097861	0.322721	-0.475870	-0.108925	0.237215	-0.456769	-0.089703	0.219173	-0.513631	-0.114079	0.092952	-0.469113	-0.187391	0.127532	-0.441900	-0.167489	0.049551	-0.508768	-0.128175	0.102199	-0.286085	-0.079484	0.072176	-0.330169	-0.179728	0.087615	-0.297496
20	0.190000	-0.336928	0.931535	-0.669901	-0.253760	0.976181	-0.846684	-0.158373	0.962558	-0.834790	-0.111182	0.940768	-0.643155	-0.389374	0.865138	-0.758945	-0.394486	0.763367	-0.804494	-0.389685	0.750201	-0.740809	-0.377429	0.668912	-0.751578	-0.381850	0.676187	-0.813932	-0.347826	0.527152	-0.854901	-0.234493	0.529815	-0.834378	-0.360019	0.420705	-0.947758	-0.338819	0.389327	-0.897310	-0.333692	0.314397	-0.942768	-0.355846	0.351053	-0.991979	-0.297593	0.164328	-1.108373	-0.230914	0.155311	-1.066149	-0.246144	0.130110	-1.175429	-0.302934	0.049422	-0.968805	-0.352264	0.043674	-1.033880	-0.246694	0.035698	-0.980645	-0.048683	0.867454	-0.709531	-0.046763	0.676003	-0.615057	-0.065696	0.693925	-0.558031	-0.081781	0.614856	-0.539599	-0.065006	0.590997	-0.597355	-0.090440	0.522274	-0.547163	-0.196097	0.538568	-0.555464	-0.077209	0.300888	-0.519876	-0.099037	0.322616	-0.462978	-0.110090	0.236555	-0.446431	-0.088896	0.220273	-0.503200	-0.113561	0.092736	-0.464008	-0.187417	0.126244	-0.436472	-0.166387	0.051058	-0.506485	-0.130480	0.093489	-0.280766	-0.081325	0.065302	-0.325614	-0.182018	0.079652	-0.293488
